<svg width="22" height="22" viewBox="0 0 22 22" fill="none" xmlns="http://www.w3.org/2000/svg">
<path d="M19.0336 11H9.21763M2.75 7.33337H5.04167M3.66667 11H5.04167M4.125 14.6667H5.04167M9.1314 11.4488L8.31418 14.1612C8.00481 15.1881 7.85011 15.7015 7.98173 16.008C8.09599 16.2742 8.32935 16.4708 8.61108 16.538C8.93559 16.6156 9.41517 16.3758 10.3744 15.8962L17.543 12.3118C18.3874 11.8896 18.8097 11.6785 18.9452 11.3928C19.0631 11.1442 19.0631 10.8558 18.9452 10.6072C18.8097 10.3215 18.3874 10.1104 17.543 9.68817L10.3646 6.09898C9.40802 5.62071 8.92976 5.38158 8.60557 5.45878C8.32407 5.52581 8.09075 5.72182 7.97617 5.98753C7.8442 6.29356 7.99725 6.8059 8.30334 7.8306L9.13239 10.6059C9.17922 10.7627 9.2026 10.8411 9.21186 10.9209C9.22011 10.9918 9.22002 11.0633 9.21158 11.1341C9.20214 11.214 9.17858 11.2922 9.1314 11.4488Z" stroke="white" stroke-width="1.5" stroke-linecap="round" stroke-linejoin="round"/>
</svg>
