<svg width="18" height="18" viewBox="0 0 18 18" fill="none" xmlns="http://www.w3.org/2000/svg">
<g clip-path="url(#clip0_686_17553)">
<path d="M17.25 9C17.25 13.5563 13.5563 17.25 9 17.25C4.44365 17.25 0.75 13.5563 0.75 9C0.75 4.44365 4.44365 0.75 9 0.75C13.5563 0.75 17.25 4.44365 17.25 9ZM2.25512 9C2.25512 12.7251 5.27491 15.7449 9 15.7449C12.7251 15.7449 15.7449 12.7251 15.7449 9C15.7449 5.27491 12.7251 2.25512 9 2.25512C5.27491 2.25512 2.25512 5.27491 2.25512 9Z" fill="#02092D"/>
<path d="M10.125 13.5C10.125 14.1213 9.6213 14.625 9 14.625C8.3787 14.625 7.875 14.1213 7.875 13.5C7.875 12.8787 8.3787 12.375 9 12.375C9.6213 12.375 10.125 12.8787 10.125 13.5Z" fill="#02092D"/>
<path d="M8.25 9V10.5C8.25 10.5 8.25 11.25 9 11.25C9.75 11.25 9.75 10.5 9.75 10.5V9C9.75 9 10.1094 8.89717 10.2472 8.84122C10.2472 8.84122 10.4977 8.75183 10.673 8.6172C10.8485 8.48265 11.0071 8.32275 11.1491 8.13772C11.2994 7.95262 11.4163 7.73813 11.4998 7.49416C11.5832 7.2502 11.625 7.05285 11.625 6.75C11.625 6.24526 11.5123 5.72756 11.2868 5.349C11.0697 4.96203 10.7607 4.66339 10.3599 4.45309C9.9591 4.23436 9.49148 4.125 8.95703 4.125C8.62305 4.125 8.32658 4.16706 8.06775 4.25119C7.80885 4.3269 7.57928 4.43205 7.37883 4.56665C7.18677 4.69284 7.02394 4.83585 6.89034 4.99568C6.76509 5.14711 6.66488 5.29433 6.58972 5.43734C6.51457 5.58035 6.46447 5.70652 6.43942 5.81589C6.38931 5.97572 6.36844 6.10612 6.37679 6.20707C6.39349 6.30802 6.44359 6.39214 6.5271 6.45944C6.6106 6.52673 6.74003 6.59824 6.91539 6.67395C7.0991 6.73284 7.24105 6.75387 7.34126 6.73705C7.44981 6.72022 7.5375 6.66974 7.60433 6.58562C7.60433 6.58562 7.96035 6.07927 8.06055 5.97832C8.16915 5.86896 8.30273 5.78484 8.46143 5.72595C8.62005 5.65865 8.7996 5.625 9 5.625C9.43425 5.625 9.7557 5.73016 9.9645 5.94046C10.1816 6.14236 10.2472 6.31222 10.2472 6.69919C10.2472 6.95997 10.2013 7.17028 10.1094 7.33012C10.0175 7.48995 9.89648 7.62038 9.74618 7.72133C9.74618 7.72133 9.54203 7.79932 9.375 7.875C9.21638 7.94227 8.92508 8.05357 8.77478 8.13772C8.6328 8.2134 8.55323 8.29298 8.46143 8.4108C8.36955 8.52855 8.25 8.7981 8.25 9Z" fill="#02092D"/>
</g>
<defs>
<clipPath id="clip0_686_17553">
<rect width="18" height="18" fill="white"/>
</clipPath>
</defs>
</svg>
