<svg width="18" height="18" viewBox="0 0 18 18" fill="none" xmlns="http://www.w3.org/2000/svg">
<path fill-rule="evenodd" clip-rule="evenodd" d="M9 1.5C4.85788 1.5 1.5 4.85783 1.5 9C1.5 13.1421 4.85788 16.5 9 16.5C13.1422 16.5 16.5 13.1421 16.5 9C16.5 4.85783 13.1422 1.5 9 1.5ZM9 15C5.69161 15 3 12.3084 3 9C3 5.69161 5.69161 3 9 3C12.3084 3 15 5.69161 15 9C15 12.3084 12.3084 15 9 15ZM9.93914 6C9.93914 6.54378 9.54322 6.9375 9.00762 6.9375C8.45035 6.9375 8.06414 6.54378 8.06414 5.9896C8.06414 5.45696 8.4608 5.0625 9.00762 5.0625C9.54322 5.0625 9.93914 5.45696 9.93914 6ZM8.25164 8.25H9.75164V12.75H8.25164V8.25Z" fill="#02092D"/>
</svg>
