<svg width="60" height="60" viewBox="0 0 60 60" fill="none" xmlns="http://www.w3.org/2000/svg">
<path d="M27.5 47.5H15.5C12.6997 47.5 11.2996 47.5 10.2301 46.955C9.28923 46.4757 8.52432 45.7108 8.04497 44.77C7.5 43.7005 7.5 42.3003 7.5 39.5V20.5C7.5 17.6997 7.5 16.2996 8.04497 15.2301C8.52432 14.2892 9.28923 13.5243 10.2301 13.045C11.2996 12.5 12.6997 12.5 15.5 12.5H44.5C47.3002 12.5 48.7005 12.5 49.77 13.045C50.7108 13.5243 51.4757 14.2892 51.955 15.2301C52.5 16.2996 52.5 17.6997 52.5 20.5V27.5M51.5168 20.6557L38.8748 29.0838C35.6673 31.222 34.0635 32.2912 32.33 32.7067C30.798 33.0737 29.201 33.0737 27.6693 32.7067C25.9358 32.2912 24.332 31.222 21.1244 29.0838L7.86865 20.2466M46.244 39.2797C44.4945 37.332 41.5772 36.808 39.3852 38.5917C37.1935 40.3752 36.8848 43.3575 38.6063 45.467C40.3275 47.5765 46.244 52.5 46.244 52.5C46.244 52.5 52.1605 47.5765 53.8818 45.467C55.6033 43.3575 55.3323 40.3565 53.1028 38.5917C50.873 36.8267 47.9935 37.332 46.244 39.2797Z" stroke="#676B85" stroke-width="5" stroke-linecap="round" stroke-linejoin="round"/>
</svg>
