<svg width="18" height="18" viewBox="0 0 18 18" fill="none" xmlns="http://www.w3.org/2000/svg">
<g clip-path="url(#clip0_686_17514)">
<path fill-rule="evenodd" clip-rule="evenodd" d="M12.75 2.25C13.9483 2.25 14.9277 3.18669 14.9962 4.3678L15 4.5V7.76257L15.4454 7.56465C15.9057 7.36008 16.4372 7.67752 16.4949 8.16271L16.5 8.25V14.25C16.5 15.0408 15.8881 15.6886 15.1119 15.7459L15 15.75H3C2.20923 15.75 1.56138 15.1381 1.50411 14.3619L1.5 14.25V8.25C1.5 7.7463 2.00598 7.38951 2.47275 7.5339L2.55461 7.56465L3 7.76257V4.5C3 3.30174 3.93669 2.32225 5.1178 2.25382L5.25 2.25H12.75ZM15 9.4041L9.60922 11.8C9.22132 11.9723 8.77868 11.9723 8.39078 11.8L3 9.4041V14.25H15V9.4041ZM12.75 3.75H5.25C4.83579 3.75 4.5 4.08579 4.5 4.5V8.42925L9 10.4293L13.5 8.42925V4.5C13.5 4.08579 13.1642 3.75 12.75 3.75ZM9 6C9.41422 6 9.75 6.33579 9.75 6.75C9.75 7.13462 9.46048 7.45163 9.08747 7.49495L9 7.5H7.5C7.08579 7.5 6.75 7.16421 6.75 6.75C6.75 6.36538 7.03953 6.04837 7.41253 6.00505L7.5 6H9Z" fill="#02092D"/>
<path fill-rule="evenodd" clip-rule="evenodd" d="M12.75 2.25C13.9483 2.25 14.9277 3.18669 14.9962 4.3678L15 4.5V7.76257L15.4454 7.56465C15.9057 7.36008 16.4372 7.67752 16.4949 8.16271L16.5 8.25V14.25C16.5 15.0408 15.8881 15.6886 15.1119 15.7459L15 15.75H3C2.20923 15.75 1.56138 15.1381 1.50411 14.3619L1.5 14.25V8.25C1.5 7.7463 2.00598 7.38951 2.47275 7.5339L2.55461 7.56465L3 7.76257V4.5C3 3.30174 3.93669 2.32225 5.1178 2.25382L5.25 2.25H12.75ZM15 9.4041L9.60922 11.8C9.22132 11.9723 8.77868 11.9723 8.39078 11.8L3 9.4041V14.25H15V9.4041ZM12.75 3.75H5.25C4.83579 3.75 4.5 4.08579 4.5 4.5V8.42925L9 10.4293L13.5 8.42925V4.5C13.5 4.08579 13.1642 3.75 12.75 3.75ZM9 6C9.41422 6 9.75 6.33579 9.75 6.75C9.75 7.13462 9.46048 7.45163 9.08747 7.49495L9 7.5H7.5C7.08579 7.5 6.75 7.16421 6.75 6.75C6.75 6.36538 7.03953 6.04837 7.41253 6.00505L7.5 6H9Z" fill="#02092D"/>
</g>
<defs>
<clipPath id="clip0_686_17514">
<rect width="18" height="18" fill="white"/>
</clipPath>
</defs>
</svg>
