<svg width="18" height="18" viewBox="0 0 18 18" fill="none" xmlns="http://www.w3.org/2000/svg">
<path d="M9.06952 5.08461V7.20137C9.06952 7.33686 8.93805 7.44602 8.77578 7.44602H8.69748C8.53525 7.44602 8.40445 7.33686 8.40445 7.20137V5.0748C8.40445 4.72619 8.12265 4.62192 7.85346 4.62192C7.58355 4.62192 7.30242 4.72619 7.30242 5.0748V7.20137C7.30242 7.33686 7.17026 7.44602 7.00875 7.44602H6.93045C6.76891 7.44602 6.63675 7.33686 6.63675 7.20137V5.08461C6.63675 4.46013 5.57037 4.48126 5.57037 5.09164C5.57037 5.82254 5.57037 7.11302 5.57037 7.11302C5.5655 8.23535 5.88642 8.52707 6.4172 8.8766C6.84516 9.15827 7.2109 9.31974 7.2109 10.0191V14.519H8.49614V10.0191C8.49614 9.31974 8.86115 9.15827 9.28911 8.8766C9.81989 8.52707 10.1408 8.23535 10.1359 7.11302C10.1359 7.11302 10.1359 5.8225 10.1359 5.09164C10.1359 4.48126 9.06952 4.46013 9.06952 5.08461Z" fill="#02092D"/>
<path d="M12.5657 5.2953C12.2923 5.93416 11.7805 7.49496 11.7805 8.28762C11.7091 10.1943 12.8839 9.17233 12.9133 10.6656V14.5316H14.1923L14.1986 14.5453C14.1986 14.5453 14.1986 14.5395 14.1986 14.5316C14.1986 14.352 14.1986 12.2132 14.1986 10.0313C14.1986 7.87299 14.1986 5.67457 14.1986 5.29534C14.1986 4.51641 12.9902 4.30175 12.5657 5.2953Z" fill="#02092D"/>
<path d="M17.8161 1.24738C17.6385 0.880066 17.3427 0.569391 16.97 0.349207C16.784 0.239098 16.5784 0.15198 16.3581 0.0920391C16.1378 0.0320977 15.9043 0 15.663 0H3.41732H3.22085H2.33695C2.01531 0 1.70621 0.0571641 1.42649 0.160559C1.00621 0.316477 0.651002 0.574594 0.39926 0.900281C0.273368 1.06327 0.173362 1.24309 0.104869 1.43571C0.0363366 1.62777 0 1.83234 0 2.04244V15.9575C0 16.2379 0.065036 16.508 0.183893 16.7526C0.361516 17.1199 0.657313 17.4306 1.02936 17.6508C1.21607 17.7608 1.42231 17.8483 1.6419 17.9079C1.86213 17.9679 2.0957 18 2.33695 18H3.22085H3.41732H15.663C15.984 18 16.2931 17.9428 16.5727 17.8394C16.993 17.6838 17.349 17.4257 17.6 17.0997C17.7258 16.937 17.8266 16.7569 17.8944 16.5645C17.9636 16.3725 18 16.1679 18 15.9575V2.04244C18 1.76235 17.9343 1.492 17.8161 1.24738ZM3.05858 16.9101H2.33695C2.18381 16.9098 2.04188 16.8835 1.91181 16.8355C1.71738 16.7633 1.54957 16.6419 1.43139 16.4893C1.37267 16.4132 1.32648 16.33 1.29505 16.2407C1.26358 16.1517 1.24609 16.0569 1.24609 15.9575V2.04244C1.24609 1.90972 1.27688 1.78587 1.33139 1.6721C1.41391 1.50237 1.55238 1.35562 1.72719 1.25255C1.81457 1.20115 1.90972 1.16047 2.01177 1.13266C2.11387 1.10514 2.22228 1.09013 2.33695 1.08984H3.05862L3.05858 16.9101ZM16.7532 15.9576C16.7532 16.0903 16.7232 16.2141 16.6686 16.3279C16.5861 16.4979 16.4469 16.6444 16.2728 16.7478C16.1854 16.7992 16.0896 16.8395 15.9882 16.8673C15.8854 16.8949 15.7777 16.9099 15.663 16.9102H3.77606V1.08988H15.663C15.8155 1.0902 15.9574 1.11681 16.0875 1.16483C16.2826 1.23669 16.4504 1.3584 16.5679 1.5107C16.6266 1.58685 16.6735 1.67034 16.705 1.75929C16.7365 1.84859 16.7532 1.9428 16.7532 2.04247V15.9576H16.7532Z" fill="#02092D"/>
</svg>
