<svg width="18" height="18" viewBox="0 0 18 18" fill="none" xmlns="http://www.w3.org/2000/svg">
<g clip-path="url(#clip0_686_17527)">
<path fill-rule="evenodd" clip-rule="evenodd" d="M17.2867 2.3384C17.633 1.30007 16.6063 0.331381 15.5899 0.737585L15.273 0.864241L1.32078 5.2021C0.498356 5.4578 0.398073 6.58028 1.16217 6.9775L7.59366 10.3207C7.61456 10.3315 7.63564 10.3415 7.65698 10.3507C7.66611 10.3717 7.67595 10.3924 7.68662 10.4129L11.0328 16.8387C11.4303 17.6021 12.5538 17.5019 12.8097 16.6802L17.1369 2.78705L17.2867 2.3384ZM2.74678 6.10467C2.63713 6.13876 2.62377 6.28856 2.72565 6.34153L7.89465 9.02848C7.94441 9.05432 8.00522 9.04493 8.04482 9.00533L14.2843 2.77139C14.3793 2.67647 14.2836 2.51779 14.1553 2.55766L2.74678 6.10467ZM11.9063 15.2558C11.8721 15.3653 11.7225 15.3787 11.6695 15.2769L8.98005 10.1123C8.95414 10.0626 8.96353 10.0017 9.00326 9.96203L15.243 3.72788C15.3379 3.63298 15.4965 3.72888 15.4566 3.85707L11.9063 15.2558Z" fill="#02092D"/>
</g>
<defs>
<clipPath id="clip0_686_17527">
<rect width="18" height="18" fill="white"/>
</clipPath>
</defs>
</svg>
