<svg width="18" height="18" viewBox="0 0 18 18" fill="none" xmlns="http://www.w3.org/2000/svg">
<g clip-path="url(#clip0_516_16622)">
<path d="M16.5 12C16.5 12.5967 16.2629 13.169 15.841 13.591C15.419 14.0129 14.8467 14.25 14.25 14.25H12.75C12.1533 14.25 11.581 14.0129 11.159 13.591C10.7371 13.169 10.5 12.5967 10.5 12V11.25C10.5 6.75 12.021 3.75 15.75 3.75C12.75 6.7215 13.5 8.25 13.5 8.25H14.25C14.8467 8.25 15.419 8.48705 15.841 8.90901C16.2629 9.33097 16.5 9.90326 16.5 10.5V12Z" fill="#D9D9D9"/>
<path d="M7.5 12C7.5 12.5967 7.26295 13.169 6.84099 13.591C6.41903 14.0129 5.84674 14.25 5.25 14.25H3.75C3.15326 14.25 2.58097 14.0129 2.15901 13.591C1.73705 13.169 1.5 12.5967 1.5 12V11.25C1.5 6.75 3.021 3.75 6.75 3.75C3.75 6.7215 4.5 8.25 4.5 8.25H5.25C5.84674 8.25 6.41903 8.48705 6.84099 8.90901C7.26295 9.33097 7.5 9.90326 7.5 10.5V12Z" fill="#D9D9D9"/>
</g>
<defs>
<clipPath id="clip0_516_16622">
<rect width="18" height="18" fill="white" transform="matrix(-1 0 0 -1 18 18)"/>
</clipPath>
</defs>
</svg>
