<svg width="17" height="18" viewBox="0 0 17 18" fill="none" xmlns="http://www.w3.org/2000/svg">
<path d="M3.8125 7.24782C4.25446 7.22222 4.7993 7.22222 5.5 7.22222H11.5C12.2007 7.22222 12.7456 7.22222 13.1875 7.24782M3.8125 7.24782C3.26095 7.27973 2.86965 7.35156 2.53565 7.51289C2.00644 7.76853 1.57619 8.17644 1.30654 8.67822C1 9.24871 1 9.99538 1 11.4889V12.7333C1 14.2268 1 14.9735 1.30654 15.544C1.57619 16.0458 2.00644 16.4537 2.53565 16.7093C3.13728 17 3.92485 17 5.5 17H11.5C13.0752 17 13.8627 17 14.4644 16.7093C14.9936 16.4537 15.4238 16.0458 15.6934 15.544C16 14.9735 16 14.2268 16 12.7333V11.4889C16 9.99538 16 9.24871 15.6934 8.67822C15.4238 8.17644 14.9936 7.76853 14.4644 7.51289C14.1303 7.35156 13.739 7.27973 13.1875 7.24782M3.8125 7.24782V5.44444C3.8125 2.98985 5.91117 1 8.5 1C11.0888 1 13.1875 2.98985 13.1875 5.44444V7.24782" stroke="#8D90A0" strokewidth="1.5" strokelinecap="round" strokelinejoin="round"/>
</svg>
