<svg width="167" height="166" viewBox="0 0 167 166" fill="none" xmlns="http://www.w3.org/2000/svg">
<path d="M83.5255 138.755C83.5255 138.755 76.7825 134.399 70.1821 129.39H20.6855V160.985H146.314V129.39H96.8591C90.2655 134.404 83.5255 138.755 83.5255 138.755Z" fill="white"/>
<path d="M20.6855 5.01501V100.803H56.2226C58.435 94.7818 63.6584 90.4353 69.7532 90.4353C77.8022 90.4353 83.4997 96.8069 83.4997 96.8069C83.4997 96.8069 89.543 90.4353 97.2456 90.4353C103.341 90.4353 108.564 94.7818 110.776 100.803H146.314V5.01501H20.6855Z" fill="white"/>
<path d="M97.2458 90.4353C89.5432 90.4353 83.4999 96.8068 83.4999 96.8068C83.4999 96.8068 77.8017 90.4353 69.7534 90.4353C61.9249 90.4353 55.5326 97.6044 55.1145 106.285C54.8783 111.189 56.3021 114.921 58.3087 118.302C62.316 125.055 83.5257 138.754 83.5257 138.754C83.5257 138.754 104.657 125.114 108.691 118.302C110.702 114.906 112.121 111.189 111.885 106.285C111.467 97.6051 105.075 90.4353 97.2458 90.4353Z" fill="#DE5E88"/>
<path d="M58.3085 118.302C56.3019 114.922 54.8788 111.19 55.1143 106.286C55.2073 104.364 55.5934 102.516 56.2226 100.803H20.6855V129.39H70.1821C65.0769 125.514 60.0561 121.248 58.3085 118.302Z" fill="#C4A468"/>
<path d="M110.777 100.803C111.406 102.516 111.793 104.364 111.885 106.286C112.122 111.19 110.702 114.906 108.691 118.302C106.935 121.267 101.94 125.525 96.8594 129.39H146.314V100.803H110.777Z" fill="#C4A468"/>
<path d="M146.314 0H20.6859C17.8994 0 15.6406 2.24586 15.6406 5.01502V100.803V129.39V160.985C15.6406 163.754 17.8994 166 20.6859 166H146.314C149.101 166 151.359 163.754 151.359 160.985V129.39V100.803V5.01502C151.359 2.24586 149.101 0 146.314 0ZM25.7311 105.819H50.087C50.0831 105.895 50.0785 105.971 50.0749 106.046C50.0544 106.474 50.0446 106.894 50.0443 107.307C50.0443 107.337 50.0462 107.365 50.0462 107.395C50.0501 108.598 50.1356 109.739 50.2863 110.813C50.3045 110.944 50.329 111.069 50.3492 111.199C50.4425 111.793 50.5502 112.372 50.6783 112.926C50.6989 113.016 50.7237 113.102 50.7455 113.191C51.5352 116.434 52.8513 118.979 53.9626 120.851C54.4662 121.699 55.2385 122.818 56.689 124.375H25.7311V105.819ZM83.5261 132.725C81.0006 131.023 77.0787 128.314 73.2449 125.403C73.2439 125.403 73.2429 125.402 73.2419 125.401C72.7494 125.027 72.2804 124.667 71.8319 124.318C71.8058 124.298 71.7794 124.277 71.7533 124.257C71.5334 124.085 71.3178 123.916 71.1081 123.751C71.1026 123.746 71.0964 123.742 71.0908 123.737C65.3345 119.195 63.4137 116.878 62.8129 116C62.7575 115.917 62.7014 115.833 62.6544 115.754C62.3703 115.275 62.1204 114.809 61.8869 114.348C60.9433 112.483 60.3979 110.73 60.2104 108.887C60.1328 108.121 60.1151 107.338 60.1543 106.526C60.1699 106.203 60.1986 105.883 60.2371 105.564C60.2407 105.533 60.2437 105.501 60.2476 105.469C60.287 105.159 60.3373 104.851 60.3979 104.545C60.4041 104.514 60.41 104.482 60.4165 104.45C60.4805 104.137 60.5551 103.826 60.6416 103.519C60.6455 103.505 60.6501 103.489 60.6546 103.474C60.7453 103.154 60.8474 102.838 60.9619 102.526C60.9619 102.525 60.9625 102.525 60.9625 102.524C61.1514 102.011 61.3683 101.52 61.6077 101.052C61.6299 101.008 61.6521 100.965 61.6749 100.922C61.7763 100.729 61.8827 100.541 61.9923 100.356C62.0559 100.25 62.1224 100.146 62.1889 100.042C62.233 99.9735 62.2767 99.9057 62.3217 99.838C63.6013 97.9296 65.3515 96.506 67.3242 95.8511C67.3924 95.829 67.4599 95.8053 67.528 95.7849C67.6269 95.7548 67.7264 95.7278 67.8262 95.7016C67.9589 95.6675 68.092 95.6364 68.2264 95.6092C68.2991 95.5943 68.3722 95.579 68.4452 95.5664C68.6168 95.5362 68.7897 95.5129 68.9635 95.4947C69.0216 95.4886 69.079 95.4831 69.1377 95.4789C69.3419 95.4623 69.5467 95.4503 69.7538 95.4503C75.3572 95.4503 79.7076 100.116 79.7295 100.139C80.6698 101.191 82.0023 101.811 83.4175 101.831C84.8331 101.877 86.1825 101.29 87.1535 100.266C87.158 100.261 87.2155 100.203 87.2983 100.124C88.0557 99.3999 92.4169 95.45 97.2456 95.45C97.452 95.45 97.6572 95.4617 97.8617 95.4785C97.9198 95.4831 97.9778 95.4886 98.0359 95.4944C98.2094 95.5126 98.382 95.5359 98.5535 95.5657C98.6272 95.5787 98.701 95.5939 98.774 95.6089C98.9077 95.6361 99.0405 95.6666 99.1726 95.7006C99.273 95.7266 99.3729 95.7538 99.4723 95.7843C99.5399 95.8044 99.6064 95.8274 99.6733 95.8494C101.649 96.5043 103.402 97.9306 104.682 99.8428C104.723 99.9041 104.763 99.9664 104.803 100.028C104.876 100.142 104.949 100.257 105.019 100.374C105.123 100.55 105.225 100.731 105.322 100.915C105.347 100.962 105.371 101.009 105.396 101.056C105.634 101.523 105.851 102.011 106.039 102.523C106.039 102.523 106.039 102.524 106.039 102.524C106.153 102.834 106.254 103.148 106.345 103.465C106.35 103.485 106.356 103.505 106.362 103.525C106.447 103.828 106.521 104.134 106.584 104.443C106.592 104.479 106.598 104.515 106.605 104.551C106.665 104.853 106.715 105.157 106.754 105.463C106.758 105.499 106.761 105.536 106.766 105.571C106.803 105.882 106.831 106.194 106.846 106.508C106.847 106.513 106.847 106.519 106.847 106.525C106.926 108.148 106.778 109.649 106.371 111.148C106.317 111.347 106.246 111.547 106.183 111.747C105.771 113.048 105.173 114.359 104.345 115.757C104.291 115.849 104.228 115.945 104.162 116.042C103.584 116.889 102.084 118.668 98.259 121.863C96.7707 123.103 95.1108 124.409 93.3746 125.724C89.681 128.513 85.9564 131.086 83.5261 132.725ZM113.039 120.846C114.397 118.554 116.063 115.262 116.695 110.917C116.7 110.88 116.708 110.844 116.713 110.806C116.754 110.517 116.786 110.219 116.817 109.92C116.825 109.84 116.837 109.764 116.845 109.684C116.856 109.56 116.861 109.431 116.871 109.306C116.923 108.658 116.955 107.994 116.955 107.304C116.955 106.892 116.945 106.473 116.924 106.045C116.921 105.97 116.917 105.894 116.913 105.819H141.269V124.375H110.321C111.763 122.82 112.534 121.698 113.039 120.846ZM25.7311 10.0304H141.269V95.7888H114.027C112.707 93.4207 110.99 91.358 108.98 89.7084C108.972 89.7019 108.964 89.6954 108.956 89.6889C108.316 89.1653 107.647 88.6829 106.951 88.2465C106.893 88.2105 106.834 88.1758 106.776 88.1402C106.497 87.9693 106.214 87.8056 105.926 87.6496C105.852 87.6094 105.779 87.5679 105.704 87.5287C105.021 87.1691 104.316 86.852 103.594 86.5803C103.5 86.5453 103.406 86.5123 103.311 86.4785C103.033 86.3787 102.752 86.2866 102.468 86.2004C102.373 86.1712 102.278 86.141 102.183 86.1141C101.812 86.0084 101.439 85.9112 101.061 85.8288C101.06 85.8288 101.059 85.8288 101.058 85.8281C100.687 85.7477 100.312 85.6826 99.9345 85.6255C99.8259 85.609 99.7166 85.5954 99.6077 85.5814C99.3233 85.5438 99.0372 85.5133 98.7495 85.489C98.637 85.4796 98.5255 85.4689 98.4126 85.4615C98.0261 85.4365 97.6383 85.42 97.2465 85.42C91.4873 85.42 86.6489 87.9858 83.532 90.2155C80.6359 88.1197 76.2199 85.739 70.8426 85.4495C70.4838 85.43 70.1211 85.42 69.7542 85.42C69.3628 85.42 68.9743 85.4365 68.5881 85.4615C68.4756 85.4689 68.3637 85.4796 68.2515 85.489C67.9635 85.513 67.6774 85.5438 67.3927 85.5814C67.2837 85.596 67.1748 85.6096 67.0662 85.6255C66.6878 85.6826 66.3118 85.7477 65.9406 85.8285C65.5622 85.9108 65.1884 86.0081 64.8179 86.1138C64.7226 86.141 64.6287 86.1709 64.5338 86.1994C64.2494 86.2856 63.9676 86.3783 63.6884 86.4782C63.5944 86.5119 63.5008 86.5444 63.4078 86.5794C62.6844 86.8511 61.9795 87.1688 61.2959 87.5284C61.2222 87.5676 61.1494 87.6081 61.076 87.6477C60.788 87.8043 60.5033 87.968 60.2234 88.1395C60.166 88.1745 60.108 88.2086 60.0509 88.2442C59.3542 88.6809 58.6846 89.1634 58.0433 89.688C58.0361 89.6941 58.0293 89.6997 58.0221 89.7055C56.0116 91.3551 54.2939 93.4181 52.9733 95.7868H25.7311V10.0304ZM141.269 155.97H25.7311V134.405H68.458C73.8548 138.437 79.0139 141.822 80.7771 142.961C81.1741 143.217 81.5994 143.408 82.0381 143.542C82.0613 143.549 82.0835 143.561 82.1066 143.567C82.1454 143.579 82.1859 143.582 82.2247 143.593C82.651 143.706 83.0881 143.77 83.5258 143.77C84.0832 143.77 84.6384 143.667 85.172 143.484C85.5533 143.352 85.9258 143.186 86.2738 142.961C86.295 142.947 86.357 142.908 86.4489 142.847C88.3495 141.617 93.3514 138.321 98.5871 134.405H141.269V155.97Z" fill="#676B85"/>
<path d="M46.2064 41.6255H105.739C108.526 41.6255 110.784 39.3796 110.784 36.6105C110.784 33.8413 108.526 31.5955 105.739 31.5955H46.2064C43.4199 31.5955 41.1611 33.8413 41.1611 36.6105C41.1611 39.3796 43.4199 41.6255 46.2064 41.6255Z" fill="#676B85"/>
<path d="M116.134 38.5256C116.26 38.8317 116.416 39.1225 116.598 39.3932C116.784 39.6691 116.996 39.9249 117.229 40.1555C117.461 40.3866 117.718 40.5974 117.995 40.7773C118.268 40.9579 118.56 41.1132 118.863 41.2387C119.171 41.3641 119.489 41.4643 119.807 41.5295C120.135 41.5947 120.468 41.6248 120.796 41.6248C121.124 41.6248 121.457 41.5943 121.78 41.5295C122.103 41.4643 122.42 41.3641 122.723 41.2387C123.031 41.1132 123.324 40.9579 123.596 40.7773C123.874 40.5974 124.131 40.3866 124.363 40.1555C124.595 39.9246 124.807 39.6691 124.988 39.3932C125.17 39.1225 125.326 38.8317 125.453 38.5256C125.579 38.2247 125.675 37.9093 125.74 37.5883C125.806 37.2667 125.841 36.936 125.841 36.6104C125.841 36.2846 125.806 35.9529 125.74 35.6326C125.675 35.3123 125.579 34.9958 125.453 34.6946C125.326 34.3886 125.17 34.0984 124.988 33.8277C124.807 33.5514 124.595 33.2956 124.363 33.0648C124.131 32.8339 123.874 32.6235 123.596 32.4429C123.324 32.263 123.031 32.107 122.723 31.9816C122.421 31.8561 122.103 31.7559 121.78 31.6963C121.129 31.5653 120.458 31.5653 119.807 31.6963C119.489 31.7559 119.171 31.8561 118.863 31.9816C118.561 32.107 118.268 32.263 117.995 32.4429C117.718 32.6235 117.46 32.8343 117.229 33.0648C116.991 33.2956 116.785 33.5511 116.598 33.8277C116.416 34.0984 116.26 34.3889 116.134 34.6946C116.007 34.9962 115.911 35.3116 115.846 35.6326C115.78 35.9536 115.75 36.2846 115.75 36.6104C115.75 36.936 115.78 37.2673 115.846 37.5883C115.911 37.9093 116.007 38.2251 116.134 38.5256Z" fill="#676B85"/>
<path d="M120.794 60.1812H61.261C58.4746 60.1812 56.2158 62.427 56.2158 65.1962C56.2158 67.9656 58.4746 70.2112 61.261 70.2112H120.794C123.58 70.2112 125.839 67.9653 125.839 65.1962C125.839 62.427 123.58 60.1812 120.794 60.1812Z" fill="#676B85"/>
<path d="M51.1544 64.2183C51.0888 63.8974 50.9929 63.5816 50.8667 63.2804C50.7405 62.9743 50.5842 62.6841 50.4026 62.4134C50.216 62.1372 50.004 61.8814 49.7717 61.6505C49.5395 61.4197 49.2825 61.2093 49.0049 61.0287C48.7326 60.8432 48.44 60.6928 48.137 60.5673C47.8291 60.4418 47.5114 60.3416 47.1934 60.2765C46.5426 60.151 45.8714 60.151 45.2207 60.2765C44.8978 60.3416 44.5801 60.4418 44.2771 60.5673C43.9691 60.6928 43.6766 60.8432 43.4042 61.0287C43.1266 61.2093 42.8693 61.42 42.6374 61.6505C42.4052 61.8814 42.1935 62.1368 42.0118 62.4134C41.8301 62.6841 41.6739 62.9746 41.5476 63.2804C41.4214 63.5819 41.3255 63.8974 41.26 64.2183C41.1944 64.5393 41.1592 64.8703 41.1592 65.1962C41.1592 65.5217 41.1944 65.853 41.26 66.174C41.3255 66.495 41.4214 66.8108 41.5476 67.1113C41.6739 67.4174 41.8301 67.7082 42.0118 67.9789C42.1935 68.2549 42.4055 68.5107 42.6374 68.7412C42.8696 68.972 43.1266 69.1831 43.4042 69.363C43.6766 69.5436 43.9691 69.6989 44.2771 69.8244C44.5797 69.9499 44.8978 70.0501 45.2207 70.1104C45.5436 70.1755 45.8766 70.2105 46.2044 70.2105C46.5322 70.2105 46.8652 70.1755 47.1934 70.1104C47.5114 70.0501 47.8291 69.9499 48.137 69.8244C48.4397 69.6989 48.7322 69.5436 49.0049 69.363C49.2825 69.1831 49.5398 68.9717 49.7717 68.7412C50.004 68.5103 50.2157 68.2549 50.4026 67.9789C50.5842 67.7082 50.7405 67.4174 50.8667 67.1113C50.9929 66.8105 51.0888 66.495 51.1544 66.174C51.2199 65.8524 51.2503 65.5217 51.2503 65.1962C51.2503 64.8703 51.2199 64.539 51.1544 64.2183Z" fill="#676B85"/>
</svg>
