<svg width="18" height="18" viewBox="0 0 18 18" fill="none" xmlns="http://www.w3.org/2000/svg">
<path d="M17.4375 4.06097H0.5625C0.252 4.06097 0 4.31297 0 4.62347C0 4.93397 0.252 5.18597 0.5625 5.18597H17.4375C17.748 5.18597 18 4.93397 18 4.62347C18 4.31297 17.748 4.06097 17.4375 4.06097Z" fill="#02092D"/>
<path d="M9.01203 9.60216C7.64909 9.60216 6.53984 10.6951 6.53984 12.0383C6.53984 12.4658 6.18041 12.814 5.73828 12.814C5.42778 12.814 5.17578 13.066 5.17578 13.3765C5.17578 13.687 5.42778 13.939 5.73828 13.939C6.80084 13.939 7.66484 13.0863 7.66484 12.0383C7.66484 11.315 8.26897 10.7272 9.01203 10.7272C9.32253 10.7272 9.57453 10.4752 9.57453 10.1647C9.57453 9.85416 9.32253 9.60216 9.01203 9.60216Z" fill="#02092D"/>
<path d="M12.2855 12.814C11.8433 12.814 11.4839 12.4658 11.4839 12.0383C11.4839 10.6951 10.3747 9.60216 9.01172 9.60216C8.70122 9.60216 8.44922 9.85416 8.44922 10.1647C8.44922 10.4752 8.70122 10.7272 9.01172 10.7272C9.75478 10.7272 10.3589 11.3155 10.3589 12.0383C10.3589 13.0863 11.2229 13.939 12.2855 13.939C12.596 13.939 12.848 13.687 12.848 13.3765C12.848 13.066 12.596 12.814 12.2855 12.814Z" fill="#02092D"/>
<path d="M16.3125 4.06097C16.002 4.06097 15.75 4.31297 15.75 4.62347V5.74847H2.25V4.62347C2.25 4.31297 1.998 4.06097 1.6875 4.06097C1.377 4.06097 1.125 4.31297 1.125 4.62347V6.31097C1.125 6.62147 1.377 6.87347 1.6875 6.87347H16.3125C16.623 6.87347 16.875 6.62147 16.875 6.31097V4.62347C16.875 4.31297 16.623 4.06097 16.3125 4.06097Z" fill="#02092D"/>
<path d="M9 6.31097C8.6895 6.31097 8.4375 6.56297 8.4375 6.87347V13.061C8.4375 13.3715 8.6895 13.6235 9 13.6235C9.3105 13.6235 9.5625 13.3715 9.5625 13.061V6.87347C9.5625 6.56297 9.3105 6.31097 9 6.31097Z" fill="#02092D"/>
</svg>
